<?xml version="1.0" encoding="UTF-8" standalone="no"?>
<!-- Created with Inkscape (http://www.inkscape.org/) -->

<svg
   version="1.1"
   id="svg2"
   width="2666.6667"
   height="2666.6667"
   viewBox="0 0 2666.6667 2666.6667"
   xmlns="http://www.w3.org/2000/svg"
   xmlns:svg="http://www.w3.org/2000/svg">
  <defs
     id="defs6">
    <clipPath
       clipPathUnits="userSpaceOnUse"
       id="clipPath18">
      <path
         d="M 0,2000 H 2000 V 0 H 0 Z"
         id="path16" />
    </clipPath>
  </defs>
  <g
     id="g10"
     transform="matrix(1.3333333,0,0,-1.3333333,0,2666.6667)">
    <g
       id="g12">
      <g
         id="g14"
         clip-path="url(#clipPath18)">
        <g
           id="g20"
           transform="translate(1260.0541,1114.2712)">
          <path
             d="m 0,0 c 0,0 -11.017,-161.469 -83.78,-191.654 0,0 139.331,18.069 273.233,-19.573 0,0 23.875,106.807 -45.911,236.295 z"
             style="fill:#a7a9ac;fill-opacity:1;fill-rule:nonzero;stroke:none"
             id="path22" />
        </g>
        <g
           id="g24"
           transform="translate(1331.4788,1186.4418)">
          <path
             d="m 0,0 -0.718,-91.889 h -61.945 v -7.374 h 61.945 l -1.32,-173.553 10.324,1.378 -0.931,172.156 h 66.483 l -4.926,7.374 H 7.258 L 6.734,0.291 c 3.532,2.232 4.308,7.18 1.32,10.421 -1.786,1.922 -4.639,2.64 -7.103,1.766 C -3.357,10.965 -4.91,6.035 -2.639,2.406 -1.979,1.397 -1.087,0.563 0,0"
             style="fill:#24364c;fill-opacity:1;fill-rule:nonzero;stroke:none"
             id="path26" />
        </g>
        <g
           id="g28"
           transform="translate(1055.2494,1332.728)">
          <path
             d="m 0,0 c 0,0 -43.123,-251.637 -171.227,-289.28 0,0 238.758,7.043 459.158,-76.237 0,0 57.987,170.982 -38.794,394.243 z"
             style="fill:#d1d3d4;fill-opacity:1;fill-rule:nonzero;stroke:none"
             id="path30" />
        </g>
        <g
           id="g32"
           transform="translate(723.6008,1456.8564)">
          <path
             d="m 0,0 c 0,0 -24.817,-313.189 -151.412,-353.571 0,0 237.384,12.448 458.56,-65.413 0,0 39.598,222.353 -61.774,442.346 z"
             style="fill:#e6e7e8;fill-opacity:1;fill-rule:nonzero;stroke:none"
             id="path34" />
        </g>
        <g
           id="g36"
           transform="translate(1164.9729,955.9728)">
          <path
             d="m 0,0 c -54.047,28.43 -110.092,52.96 -167.651,73.375 -45.081,16.127 -91.19,29.265 -137.998,39.337 l -0.349,22.259 C -219.504,118.534 -106.579,86.28 0.291,23.443 Z m -3.493,-9.917 c -0.349,0 -0.718,0.059 -1.068,0.175 l -292.549,95.13 c -0.117,0.038 -0.233,0.077 -0.349,0.097 l -7.802,1.669 -0.31,19.736 c 46.07,-10.014 91.462,-23.016 135.844,-38.91 58.296,-20.609 115.001,-45.508 169.611,-74.501 0,-1.94 -1.572,-3.396 -3.377,-3.396 M -327.52,117.136 c -56.666,10.518 -116.845,15.836 -174.831,10.344 l -5.822,27.052 c 21.075,0.252 83.719,-0.31 165.652,-13.138 4.871,-0.757 9.878,-1.591 15.001,-2.464 z m 0,-26.606 c -26.742,2.698 -54.24,5.046 -82.496,7.045 -28.469,1.96 -56.22,3.435 -83.253,4.444 l -3.59,-0.369 -4.269,20.086 c 57.559,5.375 117.33,0 173.608,-10.519 z M -625.27,78.828 c -13.041,-3.959 -25.345,-8.286 -36.853,-12.691 v 21.812 c 18.63,13.585 84.631,27.402 103.125,31.05 l 1.65,-24.258 c -22.958,-3.822 -45.644,-9.14 -67.922,-15.913 m -36.853,41.452 c 8.539,4.095 50.457,23.152 101.185,27.033 l 1.533,-22.414 c -16.845,-3.319 -79.081,-16.204 -102.718,-30.041 z m 1011.882,-215.468 0.039,0.02 c -5.783,13.215 -14.205,25.111 -24.782,34.931 l -0.407,0.388 c -15.409,13.992 -35.475,21.735 -56.278,21.716 l -80.498,0.194 -10.188,-1.941 -2.795,-0.485 v 0.99 l -10.362,-1.398 v -1.242 C 130.662,-47.118 66.893,-53.658 19.562,-40.85 v 57.501 l 0.97,1.378 -0.97,0.601 v 298.255 l 141.761,14.419 -4.45,9.218 -137.311,-14.05 v 158.84 c 6.539,4.91 7.82,14.225 2.813,20.726 -4.774,6.191 -13.972,7.491 -20.279,2.911 -6.637,-4.832 -8.015,-14.147 -3.105,-20.687 0.776,-1.048 1.688,-1.98 2.717,-2.775 V 324.628 l -125.359,-13.74 -2.956,-9.935 128.315,13.914 V 129.129 L 0.427,30.041 c -107.22,62.43 -220.106,94.47 -306.483,110.887 l -4.503,289.853 102.664,7.762 -7.359,17.466 -95.576,-9.315 -2.542,163.129 c 8.441,4.153 11.333,15.078 5.336,22.996 -3.668,4.832 -10.072,7.006 -15.913,5.434 -9.587,-2.62 -13.973,-13.041 -9.819,-21.483 1.377,-2.775 3.551,-5.065 6.248,-6.579 V 445.064 l -92.898,-9.083 -7.419,-14.865 100.317,8.287 V 144.829 c -4.793,0.815 -9.528,1.591 -14.108,2.309 -83.855,13.138 -147.701,13.488 -167.69,13.197 l -14.671,69.028 -42.112,-6.443 4.774,-69.863 c -36.425,-3.182 -71.977,-12.808 -105.026,-28.449 l -1.592,-0.815 V 63.808 c -0.038,-0.02 -0.077,-0.02 -0.097,-0.039 -6.249,-2.503 -10.382,-8.519 -10.498,-15.253 -0.427,-26.859 -0.311,-54.629 0.465,-83.234 1.669,-60.703 6.133,-117.738 12.382,-170.775 l 6.501,0.834 -15.04,-6.714 c 1.533,-8.481 3.066,-16.961 4.58,-25.403 52.435,21.716 108.248,34.077 164.953,36.542 33.825,1.417 67.709,-0.737 101.087,-6.443 36.775,-5.104 75.083,-11.43 114.691,-19.193 23.851,-4.677 47.022,-9.645 69.494,-14.865 29.11,-6.695 68.582,-14.981 115.953,-22.298 37.861,-5.821 81.215,-12.556 136.368,-14.865 60.372,-2.542 108.248,-4.541 167.592,8.908 50.825,11.682 99.283,31.923 143.335,59.829 21.017,34.582 23.249,77.392 5.938,113.973"
             style="fill:#24364c;fill-opacity:1;fill-rule:nonzero;stroke:none"
             id="path38" />
        </g>
        <g
           id="g40"
           transform="translate(422.6829,484.2839)">
          <path
             d="M 0,0 C 22.065,13.196 46.168,21.075 70.833,27.499 151.99,48.613 234.447,50.32 317.39,43.916 394.627,37.959 469.923,20.28 545.685,5.395 c 55.793,-10.945 111.567,-22.298 168.35,-27.169 32.905,-2.821 65.958,-3.514 98.952,-2.076 3.888,0.182 7.784,0.019 11.644,-0.485 -14.458,-4.91 -29.634,-6.56 -44.635,-8.442 C 704.642,-42.17 629.132,-43.8 553.603,-34.951 509.24,-29.769 466.022,-18.397 422.475,-8.907 342.734,8.558 262.431,21.231 180.498,21.231 121.933,21.512 63.541,14.861 6.54,1.417 4.308,0.912 2.154,0.485 0,0"
             style="fill:#07b6d4;fill-opacity:1;fill-rule:nonzero;stroke:none"
             id="path42" />
        </g>
        <g
           id="g44"
           transform="translate(420.9169,443.7054)">
          <path
             d="m 0,0 c 20.765,10.324 42.694,16.437 65.089,21.347 93.286,20.473 187.173,21.347 281.488,8.5 65.69,-8.985 129.847,-25.869 194.877,-38.289 45.411,-8.655 90.919,-16.495 137.261,-19.911 -13.041,-4.114 -26.586,-5.22 -40.035,-6.675 -84.281,-9.16 -167.01,1.009 -249.06,20.163 C 308.061,4.383 224.493,13.804 140.696,13.196 95.673,12.808 51.058,7.763 6.618,0.854 4.425,0.505 2.212,0.291 0,0"
             style="fill:#07b6d4;fill-opacity:1;fill-rule:nonzero;stroke:none"
             id="path46" />
        </g>
        <g
           id="g48"
           transform="translate(617.8517,735.4788)">
          <path
             d="m 0,0 c 3.086,-43.354 12.711,-85.213 34.931,-125.268 -14.457,-1.222 -27.479,-2.289 -40.481,-3.454 -10.615,-0.931 -21.347,-1.475 -31.826,-3.105 -8.465,-1.68 -17.157,1.52 -22.512,8.287 -23.093,27.557 -38.482,59.402 -51.504,92.257 C -94.062,-15.525 -29.711,2.465 0,0"
             style="fill:#24364c;fill-opacity:1;fill-rule:nonzero;stroke:none"
             id="path50" />
        </g>
        <g
           id="g52"
           transform="translate(1518.7338,804.7567)">
          <path
             d="m 0,0 c -0.079,-3.054 -0.256,-6.118 -0.522,-9.163 -0.01,-0.108 -0.02,-0.226 -0.03,-0.335 -0.729,-8.108 -2.108,-16.158 -4.148,-24.05 -31.301,-23.695 -66.179,-42.267 -103.323,-54.996 -61.765,-21.075 -113.441,-19.892 -170.438,-18.572 -53.509,1.241 -94.081,7.832 -157.058,18.079 -43.292,7.045 -79.273,14.404 -105.047,20.07 -104.545,28.818 -212.173,44.907 -320.57,47.932 l -1.074,31.676 -0.01,0.088 -1.399,41.253 v 0.049 l -1.123,32.868 v 0.108 l -1.202,35.341 v 0.02 l -1.222,35.813 v 0.05 l -1.31,38.631 v 0.079 l -0.848,24.838 -35.676,-2.985 0.71,-27.006 2.069,-78.307 2.611,-99.195 0.936,-35.548 c -40.652,-6.276 -71.273,-14.227 -86.357,-19.409 -13.912,-4.798 -28.602,-10.966 -28.602,-10.966 v 0.079 l -0.365,2.66 c -0.374,2.67 -0.778,5.616 -1.202,8.818 -0.069,0.493 -0.128,0.995 -0.197,1.507 -1.005,7.676 -2.108,16.73 -3.182,26.908 -0.049,0.512 -0.098,1.024 -0.158,1.546 v 0.01 c -0.413,4 -0.817,8.168 -1.202,12.483 -0.689,7.38 -1.251,14.237 -1.724,21.114 -0.039,0.562 -0.079,1.104 -0.118,1.665 v 0.01 c -0.739,10.956 -1.291,22.089 -1.823,35.666 -0.019,0.552 -0.039,1.123 -0.059,1.685 -0.394,10.237 -0.788,21.872 -1.241,35.823 -0.01,0.552 -0.03,1.124 -0.059,1.685 -0.01,0.69 -0.04,1.38 -0.059,2.079 -0.444,13.725 -0.858,26.454 -1.232,38.021 -0.03,1.074 -0.069,2.128 -0.099,3.182 -0.01,0.01 -0.01,0.01 0,0.01 -0.335,10.197 -0.63,19.439 -0.886,27.617 -0.473,14.926 8.69,28.385 22.66,33.685 15.203,5.774 30.711,10.749 46.445,14.907 54.011,14.188 96.377,14.986 141.964,15.528 15.311,0.177 30.622,-0.01 45.913,-0.542 61.361,-2.138 122.092,-13.055 180.675,-31.41 l 214.685,-67.273 26.021,-40.08 0.216,-0.325 30.878,-47.558 0.532,-0.818 2.512,-3.862 c 9.4,-11.143 20.326,-20.867 32.464,-28.897 1.459,-0.966 2.927,-1.902 4.414,-2.818 28.119,-17.212 54.14,-20.316 76.791,-23.035 10.404,-1.251 20.049,-1.764 29.094,-1.754 9.646,0.01 18.591,0.611 27.025,1.527 0.03,0 0.059,0.01 0.089,0.01 11.202,1.212 21.478,2.986 31.252,4.67 15.902,2.739 27.124,5.744 35.065,8.464 9.586,3.281 14.355,6.158 16.71,7.635 9.704,6.158 32.316,20.454 36.08,46.268 1.448,11.497 -0.631,23.163 -5.961,33.459 10.217,-10.296 18.296,-22.503 23.794,-35.923 4.985,-12.286 6.946,-23.675 7.645,-33.35 0.01,-0.089 0.02,-0.178 0.02,-0.266 C 0.227,10.532 0.118,4.719 0,0"
             style="fill:#3b4b5b;fill-opacity:1;fill-rule:nonzero;stroke:none"
             id="path54" />
        </g>
        <g
           id="g56"
           transform="translate(1170.0742,898.1779)">
          <path
             d="m 0,0 c -41.174,14.079 -84.14,28.483 -125.668,41.272 -19.853,5.577 -40.79,11.931 -60.603,17.459 -10.986,2.837 -38.277,9.882 -48.849,12.611 -10.345,2.325 -38.454,8.788 -49.163,11.251 -5.971,1.163 -35.903,7.015 -41.243,8.06 -12.907,2.098 -28.592,4.68 -41.499,6.581 -9.625,1.163 -23.783,3.173 -33.34,4.178 -5.005,0.433 -20.139,1.822 -25.114,2.256 -6.345,0.502 -18.828,0.946 -25.173,1.33 -21.765,0.483 -47.43,0.128 -69.165,-3.557 v 0.079 c 21.636,4.473 47.391,5.251 69.214,5.37 6.335,-0.237 19.252,-0.562 25.271,-0.917 5.084,-0.394 19.893,-1.458 25.223,-1.862 9.537,-0.847 23.813,-2.65 33.528,-3.665 15.941,-2.325 34.089,-4.916 49.942,-7.941 24.198,-4.276 58.652,-11.754 82.426,-17.469 37.144,-9.556 76.987,-20.591 113.441,-32.188 C -80.879,29.932 -39.508,15.271 -0.217,0.325 Z"
             style="fill:#ffffff;fill-opacity:1;fill-rule:nonzero;stroke:none"
             id="path58" />
        </g>
        <g
           id="g60"
           transform="translate(1201.4839,849.8022)">
          <path
             d="m 0,0 c -50.189,19.143 -102.249,38.336 -153.285,53.716 -19.862,6.66 -49.725,14.66 -70.258,20.365 -9.843,2.857 -25.37,6.286 -35.498,8.769 -52.514,12.975 -108.082,22.936 -161.955,28.178 -17.558,1.744 -37.154,3.083 -54.721,3.438 -23.173,0.512 -51.125,0.227 -74.199,-3.33 v 0.049 c 11.606,2.237 26.02,3.38 37.577,4.207 17.134,0.956 37.962,1.37 54.977,0.513 128.22,-5.311 254.302,-39.085 374.394,-82.771 27.863,-9.784 55.174,-21.015 82.436,-32.316 z"
             style="fill:#ffffff;fill-opacity:1;fill-rule:nonzero;stroke:none"
             id="path62" />
        </g>
        <g
           id="g64"
           transform="translate(1518.2115,795.5939)">
          <path
             d="m 0,0 c -0.01,-0.108 -0.02,-0.227 -0.03,-0.335 -11.399,-7.242 -23.399,-13.537 -35.547,-19.419 -164.359,-76.268 -356.286,-58.228 -524.753,-4.67 -97.412,28.808 -199.286,50.395 -301.358,44.227 l -0.01,0.089 c 73.864,6.365 148.241,-4.01 220.43,-19.567 32.188,-6.956 64.021,-15.715 95.441,-25.597 164.457,-49.361 349.457,-64.977 509.846,6.365 C -23.695,-13.212 -11.547,-7.094 0,0"
             style="fill:#ffffff;fill-opacity:1;fill-rule:nonzero;stroke:none"
             id="path66" />
        </g>
        <g
           id="g68"
           transform="translate(1518.4775,821.9296)">
          <path
             d="m 0,0 c -28.769,-15.439 -58.947,-28.296 -90.091,-38.277 -125.659,-39.469 -263.554,-36.227 -389.321,1.241 -87.342,33.854 -178.359,59.224 -271.662,69.234 -36.336,3.793 -75.707,5.773 -112.289,2.611 v 0.049 c 36.572,3.783 76.022,2.434 112.476,-0.749 93.589,-8.946 185.098,-33.833 272.628,-67.607 125.215,-36.947 262.135,-40.878 387.616,-2.996 31.223,9.449 61.588,21.784 90.623,36.76 C -0.01,0.177 0,0.089 0,0"
             style="fill:#ffffff;fill-opacity:1;fill-rule:nonzero;stroke:none"
             id="path70" />
        </g>
        <g
           id="g72"
           transform="translate(1373.7841,790.9632)">
          <path
             d="m 0,0 c -77.135,-11.074 -156.221,-8.453 -232.873,5.104 -16.523,3.014 -33.124,6.088 -49.105,11.34 -31.843,10.68 -62.287,24.375 -94.17,34.789 -79.184,26.464 -161.65,43.745 -245.071,48.661 -32.808,1.872 -65.854,2.247 -98.574,-1.202 v 0.109 c 122.969,12.995 252.805,-11.173 368.562,-52.317 23.636,-8.306 46.671,-18.71 70.386,-26.513 15.833,-5.261 32.227,-8.345 48.593,-11.399 65.725,-11.813 132.969,-15.843 199.581,-10.552 1.882,0.147 3.764,0.295 5.646,0.453 C -17.38,-1.517 -8.434,-0.916 0,0"
             style="fill:#ffffff;fill-opacity:1;fill-rule:nonzero;stroke:none"
             id="path74" />
        </g>
        <g
           id="g76"
           transform="translate(1236.4602,817.0427)">
          <path
             d="m 0,0 c -49.794,3.537 -98.535,16.276 -145.827,31.823 -23.064,7.577 -47.282,17.942 -70.218,25.518 -47.223,15.646 -96.357,24.651 -145.108,34.139 -72.947,12.345 -148.417,24.651 -222.518,16.582 v 0.02 c 5.941,0.788 12.671,1.891 18.533,2.522 12.424,1.054 24.877,1.596 37.36,1.724 81.126,-0.522 161.522,-15.064 240.608,-31.981 24.355,-5.311 48.632,-11.567 72.248,-19.666 17.163,-5.724 35.558,-13.251 52.524,-19.685 C -110.013,21.725 -55.657,5.882 0,0"
             style="fill:#ffffff;fill-opacity:1;fill-rule:nonzero;stroke:none"
             id="path78" />
        </g>
        <g
           id="g80"
           transform="translate(614.4435,994.545)">
          <path
             d="m 0,0 c -39.361,-8.65 -92.643,-22.099 -121.964,-51.666 -0.029,1.074 -0.069,2.128 -0.098,3.182 -0.01,0.01 -0.01,0.01 0,0.01 C -93.855,-17.754 -39.508,-3.872 0,0"
             style="fill:#ffffff;fill-opacity:1;fill-rule:nonzero;stroke:none"
             id="path82" />
        </g>
        <g
           id="g84"
           transform="translate(614.4534,950.1793)">
          <path
             d="m 0,0 c -37.962,-7.882 -84.879,-20.986 -115.954,-45.105 -1.606,-1.261 -3.163,-2.591 -4.67,-3.98 -0.01,0.552 -0.03,1.123 -0.059,1.685 C -93.037,-17.606 -37.095,-2.532 0,0"
             style="fill:#ffffff;fill-opacity:1;fill-rule:nonzero;stroke:none"
             id="path86" />
        </g>
        <g
           id="g88"
           transform="translate(616.5126,916.2375)">
          <path
             d="m 0,0 c -42.129,-8.788 -87.776,-24.326 -121.383,-52.652 -0.019,0.552 -0.039,1.123 -0.059,1.685 1.508,1.557 3.064,3.074 4.651,4.562 C -86.012,-19.143 -40.533,-3.232 0,0"
             style="fill:#ffffff;fill-opacity:1;fill-rule:nonzero;stroke:none"
             id="path90" />
        </g>
        <g
           id="g92"
           transform="translate(616.5126,881.5568)">
          <path
             d="m 0,0 c -39.213,-8.877 -82.593,-25.173 -114.23,-50.76 -1.793,-1.458 -3.517,-2.985 -5.212,-4.552 -0.039,0.562 -0.078,1.104 -0.118,1.665 v 0.01 c 1.32,1.458 2.68,2.887 4.059,4.296 C -86.081,-21.488 -39.774,-3.803 0,0"
             style="fill:#ffffff;fill-opacity:1;fill-rule:nonzero;stroke:none"
             id="path94" />
        </g>
        <g
           id="g96"
           transform="translate(616.5126,851.9205)">
          <path
             d="m 0,0 c -36.129,-9.961 -83.017,-29.252 -110.919,-55.095 -1.921,-1.803 -3.734,-3.715 -5.439,-5.734 -0.049,0.512 -0.098,1.024 -0.157,1.547 -0.01,0.009 0,0.009 0,0.009 C -93.195,-26.336 -36.109,-4.71 0,0"
             style="fill:#ffffff;fill-opacity:1;fill-rule:nonzero;stroke:none"
             id="path98" />
        </g>
        <g
           id="g100"
           transform="translate(619.1235,817.0427)">
          <path
             d="m 0,0 c -39.134,-6.581 -80.386,-23.222 -110.427,-49.676 -1.793,-1.488 -3.497,-3.064 -5.162,-4.69 -0.069,0.493 -0.128,0.995 -0.197,1.507 C -87.579,-20.562 -41.912,-1.803 0,0"
             style="fill:#ffffff;fill-opacity:1;fill-rule:nonzero;stroke:none"
             id="path102" />
        </g>
        <g
           id="g104"
           transform="translate(1355.9695,497.0144)">
          <path
             d="m 0,0 c -50.651,-4.774 -101.223,-6.424 -151.874,0.64 -47.176,6.579 -93.111,18.572 -139.045,30.566 -50.421,13.186 -100.926,25.858 -151.877,36.106 -62.85,-4.239 -153.543,-4.389 -200.28,23.436 -69.546,1.177 -138.276,-5.774 -205.949,-24.049 -28.061,-7.568 -55.424,-17.174 -80.924,-30.506 l 11.294,2.386 c 50.36,10.849 101.146,17.912 152.767,18.456 114.552,1.144 228.785,-12.263 339.959,-39.9 73.084,-18.067 146.11,-36.696 221.794,-40.578 69.455,-3.571 138.289,-0.039 205.532,19.717 3.008,0.795 6.462,0.912 9.14,4.677 z"
             style="fill:#07b6d4;fill-opacity:1;fill-rule:nonzero;stroke:none"
             id="path106" />
        </g>
        <g
           id="g108"
           transform="translate(913.1733,564.3266)">
          <path
             d="m 0,0 c -54.024,10.866 -108.55,19.006 -164.019,22.112 -12.111,0.677 -24.198,1.119 -36.261,1.324 C -153.543,-4.389 -62.85,-4.239 0,0"
             style="fill:#07b6d4;fill-opacity:1;fill-rule:nonzero;stroke:none"
             id="path110" />
        </g>
        <g
           id="g112"
           transform="translate(1488.2811,726.1251)">
          <path
             d="m 0,0 c -23.928,-17.621 -51.077,-28.023 -78.925,-36.872 -12.905,-4.133 -26.082,-7.549 -39.317,-10.557 -96.294,-21.871 -193.209,-19.193 -290.357,-6.889 -66.175,8.383 -130.837,24.355 -195.79,38.812 -27.557,6.171 -55.172,11.877 -82.923,16.534 l -0.776,0.137 c -44.887,7.51 -90.123,12.225 -136.058,11.507 -3.706,0 -7.762,1.126 -11.76,-2.212 4.483,-44.344 15.118,-87.076 36.872,-126.277 58.32,-1.817 116.464,-7.365 174.075,-16.611 37.293,-6.169 74.096,-14.466 110.744,-23.416 4.36,0.573 6.763,0.931 6.763,0.931 48.214,1.725 91.744,3.951 131.049,6.56 12.945,0.859 25.421,1.761 37.465,2.699 71.067,5.534 126.73,12.363 170.322,19.613 14.37,2.39 27.432,4.826 39.297,7.276 28.758,5.938 50.515,11.96 66.959,17.619 4.652,1.601 8.875,3.172 12.716,4.705 34.703,13.848 37.884,24.502 37.884,24.502 11.256,28.119 22.356,56.161 30.604,85.174 C 12.44,8.403 6.288,4.037 0,0"
             style="fill:#24364c;fill-opacity:1;fill-rule:nonzero;stroke:none"
             id="path114" />
        </g>
        <g
           id="g116"
           transform="translate(1405.6881,599.7513)">
          <path
             d="m 0,0 c 44.072,-7.588 88.221,-13.856 133.088,-8.694 13.585,1.572 27.305,3.338 40.307,8.947 C 121.561,4.76 70.317,12.11 20.233,25.228 3.789,19.569 -17.968,13.547 -46.726,7.609 -31.125,5.313 -15.559,2.686 0,0"
             style="fill:#07b6d4;fill-opacity:1;fill-rule:nonzero;stroke:none"
             id="path118" />
        </g>
        <g
           id="g120"
           transform="translate(974.0665,567.2814)">
          <path
             d="m 0,0 c 33.341,-8.141 66.555,-16.82 99.891,-24.946 48.981,-11.934 97.672,-25.228 148.07,-30.079 76.383,-7.297 151.757,-0.776 226.355,16.418 4.405,1.028 9.393,0.756 14.05,5.045 l -9.703,-0.912 c -32.525,-3.24 -65.108,-5.472 -97.827,-3.765 -70.748,3.977 -140.801,16.096 -208.773,36.116 C 160.671,1.169 149.256,4.382 137.811,7.49 98.507,4.882 54.977,2.655 6.763,0.931 6.763,0.931 4.359,0.572 0,0"
             style="fill:#07b6d4;fill-opacity:1;fill-rule:nonzero;stroke:none"
             id="path122" />
        </g>
        <g
           id="g124"
           transform="translate(1438.6373,629.6838)">
          <path
             d="m 0,0 c 45.784,-3.186 91.318,-9.838 137.554,-7.518 l -99.67,32.02 C 37.884,24.502 34.703,13.848 0,0"
             style="fill:#07b6d4;fill-opacity:1;fill-rule:nonzero;stroke:none"
             id="path126" />
        </g>
        <g
           id="g128"
           transform="translate(689.2474,610.3084)">
          <path
             d="M 0,0 C 0,0 154.566,55.842 422.63,-35.537 L 302.483,-47.388 C 302.483,-47.388 142.421,-7.097 0,0"
             style="fill:#07b6d4;fill-opacity:1;fill-rule:nonzero;stroke:none"
             id="path130" />
        </g>
        <g
           id="g132"
           transform="translate(1298.9025,601.3439)">
          <path
             d="m 0,0 c -49.406,2.84 -174.479,9.074 -236.822,3.501 l 87.263,-24.374 c 75.12,-13.292 150.621,-23.701 226.77,-29.235 50.631,-3.687 100.796,-0.679 150.088,12.497 2.212,0.602 4.774,0.544 6.19,3.882 C 167.378,-34.399 104.041,-19.825 40.697,-5.678 27.303,-2.687 13.701,-0.787 0,0"
             style="fill:#07b6d4;fill-opacity:1;fill-rule:nonzero;stroke:none"
             id="path134" />
        </g>
      </g>
    </g>
  </g>
</svg>
